<?xml version="1.0" standalone="no"?><!DOCTYPE svg PUBLIC "-//W3C//DTD SVG 1.1//EN" "http://www.w3.org/Graphics/SVG/1.1/DTD/svg11.dtd"><svg t="1648451843021" class="icon" viewBox="0 0 1024 1024" version="1.1" xmlns="http://www.w3.org/2000/svg" p-id="16597" width="200" height="200" xmlns:xlink="http://www.w3.org/1999/xlink"><defs><style type="text/css">@font-face { font-family: feedback-iconfont; src: url("//at.alicdn.com/t/font_1031158_u69w8yhxdu.woff2?t=1630033759944") format("woff2"), url("//at.alicdn.com/t/font_1031158_u69w8yhxdu.woff?t=1630033759944") format("woff"), url("//at.alicdn.com/t/font_1031158_u69w8yhxdu.ttf?t=1630033759944") format("truetype"); }
</style></defs><path d="M460.8 460.8v51.2a51.2 51.2 0 0 0 102.4 0V460.8a153.6 153.6 0 0 1 153.6-153.6h81.408l-66.56 66.048A51.2 51.2 0 1 0 803.84 445.44l153.6-153.6a51.2 51.2 0 0 0 0-72.192l-153.6-153.6a51.2 51.2 0 0 0-72.192 72.192l66.56 66.56H716.8a256 256 0 0 0-256 256z" p-id="16598"></path><path d="M972.8 460.8a51.2 51.2 0 0 0-51.2 51.2 409.6 409.6 0 1 1-409.6-409.6 51.2 51.2 0 0 0 0-102.4 512 512 0 1 0 512 512 51.2 51.2 0 0 0-51.2-51.2z" p-id="16599"></path></svg>