<?xml version="1.0" encoding="utf-8"?>
<svg version="1.1" xmlns:xlink="http://www.w3.org/1999/xlink" width="511px" height="478px" xmlns="http://www.w3.org/2000/svg">
  <g transform="matrix(1 0 0 1 -97 -2274 )">
    <path d="M 97 2274  L 608 2274  L 608 2752  L 97 2752  L 97 2274  " fill-rule="nonzero" fill="#cccccc" stroke="none" />
    <path d="M 130 2307  L 575 2307  L 575 2719  L 130 2719  L 130 2307  " fill-rule="nonzero" fill="#ffffff" stroke="none" />
    <path d="M 398.57 2417.4  C 378.494 2417.4  362.72 2401.626  362.72 2381.55  C 362.72 2361.474  378.494 2345.7  398.57 2345.7  C 418.646 2345.7  434.42 2361.474  434.42 2381.55  C 434.42 2401.626  418.646 2417.4  398.57 2417.4  " fill-rule="nonzero" fill="#cccccc" stroke="none" />
    <path d="M 142 2707  L 142 2493.6  L 247.25 2396.6  L 394.6 2489.23405088063  L 478.8 2454.8  L 563 2489.23405088063  L 563 2707  L 142 2707  " fill-rule="nonzero" fill="#169bd5" stroke="none" />
  </g>
</svg>