<?xml version="1.0" standalone="no"?><!DOCTYPE svg PUBLIC "-//W3C//DTD SVG 1.1//EN" "http://www.w3.org/Graphics/SVG/1.1/DTD/svg11.dtd"><svg t="1648452227873" class="icon" viewBox="0 0 1024 1024" version="1.1" xmlns="http://www.w3.org/2000/svg" p-id="17218" xmlns:xlink="http://www.w3.org/1999/xlink" width="200" height="200"><defs><style type="text/css">@font-face { font-family: feedback-iconfont; src: url("//at.alicdn.com/t/font_1031158_u69w8yhxdu.woff2?t=1630033759944") format("woff2"), url("//at.alicdn.com/t/font_1031158_u69w8yhxdu.woff?t=1630033759944") format("woff"), url("//at.alicdn.com/t/font_1031158_u69w8yhxdu.ttf?t=1630033759944") format("truetype"); }
</style></defs><path d="M932.475691 93.328211l-409.222084-92.074968a51.15276 51.15276 0 0 0-22.507214 0l-409.222084 92.074968A51.15276 51.15276 0 0 0 51.625156 143.457917v361.650016a460.374844 460.374844 0 0 0 238.371864 403.59528l197.449655 108.443852a51.15276 51.15276 0 0 0 51.15276 0l197.449656-108.443852A460.374844 460.374844 0 0 0 972.374844 505.107933V143.457917a51.15276 51.15276 0 0 0-39.899153-50.129706zM870.069323 505.107933A358.069323 358.069323 0 0 1 684.384803 818.674354L512 913.818489 339.615197 818.674354A358.069323 358.069323 0 0 1 153.930677 505.107933V184.380125L512 102.535708l358.069323 81.844417z" fill="#0081e4" p-id="17219"></path><path d="M358.541719 332.72313a153.458281 153.458281 0 0 0 102.305521 144.250785v264.971299a51.15276 51.15276 0 0 0 102.30552 0v-51.152761h102.305521a51.15276 51.15276 0 0 0 0-102.305521h-102.305521V476.973915A153.458281 153.458281 0 1 0 358.541719 332.72313z m204.611041 0a51.15276 51.15276 0 1 1-51.15276-51.15276 51.15276 51.15276 0 0 1 51.15276 51.15276z" fill="#0081e4" p-id="17220"></path></svg>