<?xml version="1.0" standalone="no"?><!DOCTYPE svg PUBLIC "-//W3C//DTD SVG 1.1//EN" "http://www.w3.org/Graphics/SVG/1.1/DTD/svg11.dtd"><svg t="1648452184672" class="icon" viewBox="0 0 1024 1024" version="1.1" xmlns="http://www.w3.org/2000/svg" p-id="16833" xmlns:xlink="http://www.w3.org/1999/xlink" width="200" height="200"><defs><style type="text/css">@font-face { font-family: feedback-iconfont; src: url("//at.alicdn.com/t/font_1031158_u69w8yhxdu.woff2?t=1630033759944") format("woff2"), url("//at.alicdn.com/t/font_1031158_u69w8yhxdu.woff?t=1630033759944") format("woff"), url("//at.alicdn.com/t/font_1031158_u69w8yhxdu.ttf?t=1630033759944") format("truetype"); }
</style></defs><path d="M30.526197 302.710725l460.538184 204.683637a51.170909 51.170909 0 0 0 41.448436 0l460.538184-204.683637a51.170909 51.170909 0 0 0 0-93.642764l-460.538184-204.683637a51.170909 51.170909 0 0 0-41.448436 0l-460.538184 204.683637a51.170909 51.170909 0 0 0 0 93.642764zM512.044453 107.237851L846.7022 256.145197 512.044453 405.052544 177.386706 256.145197z" fill="#0081e4" p-id="16834"></path><path d="M30.526197 558.565272l460.538184 204.683637a51.170909 51.170909 0 0 0 41.448436 0l460.538184-204.683637a51.170909 51.170909 0 0 0-41.448436-93.642764L512.044453 660.90709 72.486342 465.434217a51.170909 51.170909 0 0 0-41.448436 93.642764z" fill="#0081e4" p-id="16835"></path><path d="M951.602565 721.288763L512.044453 916.761637l-439.558111-195.472874a51.170909 51.170909 0 1 0-41.448436 93.642764l460.538184 204.683638a51.170909 51.170909 0 0 0 41.448436 0l460.538184-204.683638a51.170909 51.170909 0 0 0-41.448436-93.642764z" fill="#0081e4" p-id="16836"></path></svg>