<?xml version="1.0" standalone="no"?><!DOCTYPE svg PUBLIC "-//W3C//DTD SVG 1.1//EN" "http://www.w3.org/Graphics/SVG/1.1/DTD/svg11.dtd"><svg t="1648452203643" class="icon" viewBox="0 0 1024 1024" version="1.1" xmlns="http://www.w3.org/2000/svg" p-id="17024" xmlns:xlink="http://www.w3.org/1999/xlink" width="200" height="200"><defs><style type="text/css">@font-face { font-family: feedback-iconfont; src: url("//at.alicdn.com/t/font_1031158_u69w8yhxdu.woff2?t=1630033759944") format("woff2"), url("//at.alicdn.com/t/font_1031158_u69w8yhxdu.woff?t=1630033759944") format("woff"), url("//at.alicdn.com/t/font_1031158_u69w8yhxdu.ttf?t=1630033759944") format("truetype"); }
</style></defs><path d="M972.8 409.6a132.608 132.608 0 0 0-55.296-102.4A132.096 132.096 0 0 0 972.8 204.8c0-134.656-231.936-204.8-460.8-204.8S51.2 70.144 51.2 204.8a132.096 132.096 0 0 0 55.296 102.4A132.608 132.608 0 0 0 51.2 409.6a132.096 132.096 0 0 0 55.296 102.4A132.096 132.096 0 0 0 51.2 614.4a132.096 132.096 0 0 0 55.296 102.4A132.096 132.096 0 0 0 51.2 819.2c0 134.656 231.936 204.8 460.8 204.8s460.8-70.144 460.8-204.8a132.608 132.608 0 0 0-55.296-102.4A132.096 132.096 0 0 0 972.8 614.4a132.608 132.608 0 0 0-55.296-102.4A132.096 132.096 0 0 0 972.8 409.6z m-460.8-307.2c232.96 0 358.4 72.704 358.4 102.4s-125.44 102.4-358.4 102.4-358.4-72.704-358.4-102.4 125.44-102.4 358.4-102.4z m0 307.2a914.944 914.944 0 0 0 302.592-47.104c45.056 22.016 55.808 41.472 55.808 47.104 0 29.696-125.44 102.4-358.4 102.4S153.6 439.296 153.6 409.6c0-8.704 15.872-27.648 55.808-47.104A914.944 914.944 0 0 0 512 409.6z m358.4 409.6c0 29.696-125.44 102.4-358.4 102.4s-358.4-72.704-358.4-102.4c0-8.192 15.36-27.136 55.808-47.104A914.944 914.944 0 0 0 512 819.2a914.432 914.432 0 0 0 303.104-47.104c39.936 19.456 55.296 38.912 55.296 47.104z m0-204.8c0 29.696-125.44 102.4-358.4 102.4s-358.4-72.704-358.4-102.4c0-8.192 15.36-27.136 55.808-47.104A914.944 914.944 0 0 0 512 614.4a914.432 914.432 0 0 0 303.104-47.104c39.936 19.456 55.296 38.912 55.296 47.104z" fill="#0081e4" p-id="17025"></path></svg>